<?xml version="1.0" encoding="UTF-8" standalone="no"?>
<!-- Created with Inkscape (http://www.inkscape.org/) -->

<svg
   xmlns:dc="http://purl.org/dc/elements/1.1/"
   xmlns:cc="http://creativecommons.org/ns#"
   xmlns:rdf="http://www.w3.org/1999/02/22-rdf-syntax-ns#"
   xmlns:svg="http://www.w3.org/2000/svg"
   xmlns="http://www.w3.org/2000/svg"
   xmlns:sodipodi="http://sodipodi.sourceforge.net/DTD/sodipodi-0.dtd"
   xmlns:inkscape="http://www.inkscape.org/namespaces/inkscape"
   version="1.1"
   id="svg2"
   xml:space="preserve"
   width="804.52026"
   height="111.07968"
   viewBox="0 0 804.52025 111.07969"
   sodipodi:docname="logo.svg"
   inkscape:version="0.92.3 (2405546, 2018-03-11)"><metadata
     id="metadata8"><rdf:RDF><cc:Work
         rdf:about=""><dc:format>image/svg+xml</dc:format><dc:type
           rdf:resource="http://purl.org/dc/dcmitype/StillImage" /><dc:title></dc:title></cc:Work></rdf:RDF></metadata><defs
     id="defs6"><clipPath
       clipPathUnits="userSpaceOnUse"
       id="clipPath26"><path
         d="M 0,0 H 362.83502 V 272.409 H 0 Z"
         id="path24"
         inkscape:connector-curvature="0" /></clipPath><clipPath
       clipPathUnits="userSpaceOnUse"
       id="clipPath16105"><path
         d="M 44.519,0 H 159.145 V 56.285 H 44.519 Z"
         id="path16103"
         inkscape:connector-curvature="0" /></clipPath><clipPath
       id="clipPath947"
       clipPathUnits="userSpaceOnUse"><path
         inkscape:connector-curvature="0"
         id="path945"
         d="M 0,0 H 196.29178 V 53.695553 H 0 Z" /></clipPath><clipPath
       id="clipPath1011"
       clipPathUnits="userSpaceOnUse"><path
         inkscape:connector-curvature="0"
         id="path1009"
         d="M 0,0 H 362.83502 V 272.409 H 0 Z" /></clipPath><clipPath
       id="clipPath1015"
       clipPathUnits="userSpaceOnUse"><path
         inkscape:connector-curvature="0"
         id="path1013"
         d="m 288,72.409 h 5 v -5 h -5 z" /></clipPath><clipPath
       id="clipPath1019"
       clipPathUnits="userSpaceOnUse"><path
         inkscape:connector-curvature="0"
         id="path1017"
         d="m 292.914,70.362 c 0,-1.109 -0.902,-2.012 -2.012,-2.012 -1.109,0 -2.011,0.903 -2.011,2.012 0,1.109 0.902,2.012 2.011,2.012 1.11,0 2.012,-0.903 2.012,-2.012 z" /></clipPath><clipPath
       id="clipPath1023"
       clipPathUnits="userSpaceOnUse"><path
         inkscape:connector-curvature="0"
         id="path1021"
         d="m 288,68 h 5 v 5 h -5 z" /></clipPath><clipPath
       id="clipPath1027"
       clipPathUnits="userSpaceOnUse"><path
         style="clip-rule:evenodd"
         inkscape:connector-curvature="0"
         id="path1025"
         d="m 292.914,70.953 c 0,-1.109 -0.902,-2.012 -2.012,-2.012 -1.109,0 -2.011,0.903 -2.011,2.012 0,1.109 0.902,2.012 2.011,2.012 1.11,0 2.012,-0.903 2.012,-2.012 z" /></clipPath><radialGradient
       id="radialGradient1033"
       spreadMethod="pad"
       gradientTransform="matrix(-0.595619,-1.027256,-1.149635,0.666576,545.11656,126.09202)"
       gradientUnits="userSpaceOnUse"
       r="1.95717"
       cy="145.65688"
       cx="146.49426"
       fy="145.65688"
       fx="146.49426"><stop
         id="stop1029"
         offset="0"
         style="stop-opacity:1;stop-color:#4e9a06" /><stop
         id="stop1031"
         offset="1"
         style="stop-opacity:1;stop-color:#73d216" /></radialGradient><clipPath
       id="clipPath1037"
       clipPathUnits="userSpaceOnUse"><path
         inkscape:connector-curvature="0"
         id="path1035"
         d="m 298,80.409 h 5 v -5 h -5 z" /></clipPath><clipPath
       id="clipPath1041"
       clipPathUnits="userSpaceOnUse"><path
         inkscape:connector-curvature="0"
         id="path1039"
         d="m 302.273,78.382 c 0,-1.11 -0.898,-2.008 -2.007,-2.008 -1.11,0 -2.012,0.898 -2.012,2.008 0,1.113 0.902,2.011 2.012,2.011 1.109,0 2.007,-0.898 2.007,-2.011 z" /></clipPath><clipPath
       id="clipPath1045"
       clipPathUnits="userSpaceOnUse"><path
         inkscape:connector-curvature="0"
         id="path1043"
         d="m 298,76 h 5 v 5 h -5 z" /></clipPath><clipPath
       id="clipPath1049"
       clipPathUnits="userSpaceOnUse"><path
         style="clip-rule:evenodd"
         inkscape:connector-curvature="0"
         id="path1047"
         d="m 302.273,78.973 c 0,-1.11 -0.898,-2.008 -2.007,-2.008 -1.11,0 -2.012,0.898 -2.012,2.008 0,1.113 0.902,2.011 2.012,2.011 1.109,0 2.007,-0.898 2.007,-2.011 z" /></clipPath><radialGradient
       id="radialGradient1055"
       spreadMethod="pad"
       gradientTransform="matrix(-0.595619,-1.027256,-1.149635,0.666576,554.47948,134.11357)"
       gradientUnits="userSpaceOnUse"
       r="1.95717"
       cy="145.65688"
       cx="146.49426"
       fy="145.65688"
       fx="146.49426"><stop
         id="stop1051"
         offset="0"
         style="stop-opacity:1;stop-color:#a40000" /><stop
         id="stop1053"
         offset="1"
         style="stop-opacity:1;stop-color:#ef2929" /></radialGradient><clipPath
       id="clipPath1059"
       clipPathUnits="userSpaceOnUse"><path
         inkscape:connector-curvature="0"
         id="path1057"
         d="m 245,105.409 h 26 v -24 h -26 z" /></clipPath><clipPath
       id="clipPath1063"
       clipPathUnits="userSpaceOnUse"><path
         inkscape:connector-curvature="0"
         id="path1061"
         d="m 257.594,105.21 c -1.856,-0.071 -2.84,-0.793 -5.606,-1.617 -2.761,-0.821 -6.187,-3.887 -6.187,-8.446 0,-5.797 4.699,-11.527 10.496,-12.797 2.91,-0.636 4.711,-0.027 7.789,1.039 3.082,1.067 6.633,4.231 6.633,8.786 0,5.8 -4.699,11.531 -10.496,12.796 -0.907,0.2 -1.789,0.27 -2.629,0.239 z" /></clipPath><clipPath
       id="clipPath1067"
       clipPathUnits="userSpaceOnUse"><path
         inkscape:connector-curvature="0"
         id="path1065"
         d="m 245,82 h 26 v 24 h -26 z" /></clipPath><clipPath
       id="clipPath1071"
       clipPathUnits="userSpaceOnUse"><path
         inkscape:connector-curvature="0"
         id="path1069"
         d="m 257.594,105.801 c -1.856,-0.071 -2.84,-0.793 -5.606,-1.617 -2.761,-0.821 -6.187,-3.887 -6.187,-8.446 0,-5.797 4.699,-11.527 10.496,-12.797 2.91,-0.636 4.711,-0.027 7.789,1.039 3.082,1.067 6.633,4.231 6.633,8.786 0,5.8 -4.699,11.531 -10.496,12.796 -0.907,0.2 -1.789,0.27 -2.629,0.239 z" /></clipPath><linearGradient
       id="linearGradient1077"
       spreadMethod="pad"
       gradientTransform="matrix(0.477773,0,0,-0.477773,8.630011,185.20136)"
       gradientUnits="userSpaceOnUse"
       y2="168.79076"
       x2="512.14282"
       y1="211.64789"
       x1="533.21429"><stop
         id="stop1073"
         offset="0"
         style="stop-opacity:1;stop-color:#83e028" /><stop
         id="stop1075"
         offset="1"
         style="stop-opacity:1;stop-color:#407110" /></linearGradient></defs><sodipodi:namedview
     pagecolor="#ffffff"
     bordercolor="#666666"
     borderopacity="1"
     objecttolerance="10"
     gridtolerance="10"
     guidetolerance="10"
     inkscape:pageopacity="0"
     inkscape:pageshadow="2"
     inkscape:window-width="3840"
     inkscape:window-height="2124"
     id="namedview4"
     showgrid="false"
     inkscape:zoom="1.8397052"
     inkscape:cx="409.2729"
     inkscape:cy="96.126252"
     inkscape:window-x="0"
     inkscape:window-y="0"
     inkscape:window-maximized="1"
     inkscape:current-layer="layer1"
     fit-margin-top="0"
     fit-margin-left="0"
     fit-margin-right="0"
     fit-margin-bottom="0" /><g
     id="g10"
     inkscape:groupmode="layer"
     inkscape:label="presentation"
     transform="matrix(1.3333333,0,0,-1.3333333,-46.309572,317.50572)"><g
       id="g1190"
       transform="translate(2.4460441,30.575552)"><path
         sodipodi:nodetypes="ccccssccssssc"
         inkscape:connector-curvature="0"
         id="path1181"
         d="M 43.24036,207.55374 H 32.286136 v -51.15301 c 0.05096,-20.08837 13.736878,-32.15675 27.385561,-32.15675 13.648683,0 30.268253,9.94529 30.268253,30.26825 0,22.34086 -17.728548,28.82691 -26.95316,28.82691 -7.639129,0 -16.57547,-3.7475 -16.57547,-3.7475 v -12.1073 c 0,0 4.324036,5.18884 14.989991,5.18884 10.665955,0 17.584415,-8.50393 17.584415,-18.59335 0,-10.08942 -5.188845,-18.88162 -17.872684,-18.88162 -12.683839,0 -18.160951,13.54864 -18.160951,20.17883 0,6.63019 0.288269,52.1767 0.288269,52.1767 z"
         style="fill:#46413c;fill-opacity:1;stroke:none;stroke-width:0.75px;stroke-linecap:butt;stroke-linejoin:miter;stroke-opacity:1" /><path
         sodipodi:nodetypes="ccscccccc"
         inkscape:connector-curvature="0"
         id="path1183"
         d="m 124.82051,183.05087 v -10.81009 c -5.04471,1.87375 -17.87269,-1.87375 -17.87269,-17.87269 V 126.26187 H 96.714273 v 55.63592 h 10.521817 v -5.18884 c 0,0 6.19779,8.07153 17.58442,6.34192 z"
         style="fill:#46413c;fill-opacity:1;stroke:none;stroke-width:0.75px;stroke-linecap:butt;stroke-linejoin:miter;stroke-opacity:1" /><path
         sodipodi:nodetypes="ccccccc"
         inkscape:connector-curvature="0"
         id="path1185"
         d="M 142.69319,206.83307 H 132.3155 l -0.051,-59.32948 c 0.0422,-3.47971 4.64027,-21.83665 24.4097,-21.0976 l 0.13689,10.22481 c -2.7518,0.10192 -13.47755,1.40513 -13.61348,16.00768 z"
         style="fill:none;stroke:#46413c;stroke-width:0.75px;stroke-linecap:butt;stroke-linejoin:miter;stroke-opacity:1" /></g><g
       transform="matrix(4.1871419,0,0,-4.1871419,-61.226106,898.87741)"
       id="layer1"
       inkscape:label="Layer 1"><path
         inkscape:connector-curvature="0"
         id="path16093"
         style="fill:#ed1c24;fill-opacity:1;fill-rule:nonzero;stroke:none;stroke-width:0.35277778"
         d="m 57.644339,177.66019 h 40.437512 v -19.8561 H 57.644339 Z" /><path
         inkscape:connector-curvature="0"
         id="path16095"
         style="fill:#a56467;fill-opacity:1;fill-rule:nonzero;stroke:none;stroke-width:0.35277778"
         d="m 57.644339,177.66019 h 40.437512 v -19.8561 H 57.644339 Z" /><g
         transform="translate(4.6e-4,4.0244201)"
         id="g26109"><path
           d="m 81.363709,170.60146 h 0.19826 v -10.17799 h -0.19826 z"
           style="fill:#ffffff;fill-opacity:1;fill-rule:nonzero;stroke:none;stroke-width:0.35277778"
           id="path16097"
           inkscape:connector-curvature="0" /><path
           inkscape:connector-curvature="0"
           id="path16109"
           style="fill:#ffffff;fill-opacity:1;fill-rule:nonzero;stroke:none;stroke-width:0.35277778"
           d="m 60.163879,163.20632 v -2.78306 h 1.342319 v 2.72415 c 0,0.66145 0.163689,0.98213 0.733425,0.98213 0.556684,0 0.733425,-0.30127 0.733425,-1.00189 v -2.70439 h 1.355373 v 2.76366 c 0,1.36172 -0.798689,1.99707 -2.088798,1.99707 -1.322563,0 -2.075744,-0.66781 -2.075744,-1.97767" /><path
           inkscape:connector-curvature="0"
           id="path16113"
           style="fill:#ffffff;fill-opacity:1;fill-rule:nonzero;stroke:none;stroke-width:0.35277778"
           d="m 64.531515,160.42336 h 1.355372 l 0.602545,2.92065 0.62865,-2.92065 h 1.191683 l 0.681214,2.94675 0.635,-2.94675 h 1.244247 l -1.093611,4.68207 h -1.401233 l -0.720373,-2.97286 -0.726722,2.97286 h -1.309864 z" /><path
           inkscape:connector-curvature="0"
           id="path16117"
           style="fill:#ffffff;fill-opacity:1;fill-rule:nonzero;stroke:none;stroke-width:0.35277778"
           d="m 60.261281,165.92035 h 2.088797 c 1.106664,0 1.578328,0.49777 1.578328,1.22449 v 0.0265 c 0,0.52352 -0.268817,0.87066 -0.792339,1.00824 0.576086,0.0981 0.936272,0.4452 0.936272,1.09326 v 0.0265 c 0,0.8382 -0.54363,1.30316 -1.702505,1.30316 h -2.108553 z m 1.820333,1.85984 c 0.4191,0 0.576086,-0.14428 0.576086,-0.47801 v -0.0265 c 0,-0.32067 -0.170038,-0.46461 -0.576086,-0.46461 h -0.510822 v 0.96908 z m 0.04586,1.92511 c 0.42545,0 0.621948,-0.19649 0.621948,-0.54363 v -0.0261 c 0,-0.35349 -0.189795,-0.53693 -0.661106,-0.53693 h -0.517525 v 1.10666 z" /><path
           inkscape:connector-curvature="0"
           id="path16121"
           style="fill:#ffffff;fill-opacity:1;fill-rule:nonzero;stroke:none;stroke-width:0.35277778"
           d="m 64.431115,167.17761 h 1.171928 v 0.68086 c 0.216253,-0.51047 0.576439,-0.73307 1.106664,-0.72672 v 1.09361 c -0.71367,-0.0198 -1.106664,0.2032 -1.106664,0.75318 v 1.62384 h -1.171928 z" /><path
           inkscape:connector-curvature="0"
           id="path16125"
           style="fill:#ffffff;fill-opacity:1;fill-rule:nonzero;stroke:none;stroke-width:0.35277778"
           d="m 67.010132,166.24779 c 0,-0.34713 0.274814,-0.60889 0.641703,-0.60889 0.366889,0 0.648405,0.26176 0.648405,0.60889 0,0.34713 -0.281516,0.60254 -0.648405,0.60254 -0.366889,0 -0.641703,-0.25541 -0.641703,-0.60254 m 0.05891,0.92992 h 1.171928 v 3.42477 h -1.171928 z" /><path
           inkscape:connector-curvature="0"
           id="path16129"
           style="fill:#ffffff;fill-opacity:1;fill-rule:nonzero;stroke:none;stroke-width:0.35277778"
           d="m 68.618869,169.51529 h 1.080558 c 0.03916,0.24871 0.150636,0.38629 0.484364,0.38629 0.28822,0 0.4191,-0.11112 0.4191,-0.28152 0,-0.16368 -0.163689,-0.24235 -0.635,-0.30762 -0.916869,-0.11782 -1.303161,-0.38629 -1.303161,-1.10031 0,-0.75953 0.674511,-1.12607 1.46685,-1.12607 0.84455,0 1.434042,0.28822 1.512358,1.10667 h -1.060802 c -0.04551,-0.22931 -0.170039,-0.34079 -0.438503,-0.34079 -0.255411,0 -0.386292,0.11148 -0.386292,0.26882 0,0.16334 0.156986,0.22895 0.576086,0.28152 0.949678,0.11782 1.407936,0.36653 1.407936,1.09996 0,0.81174 -0.602544,1.17863 -1.551869,1.17863 -0.975783,0 -1.545519,-0.40605 -1.571625,-1.16558" /><path
           inkscape:connector-curvature="0"
           id="path16133"
           style="fill:#ffffff;fill-opacity:1;fill-rule:nonzero;stroke:none;stroke-width:0.35277778"
           d="m 72.284054,169.50217 v -1.52576 h -0.412397 v -0.79869 h 0.412397 v -0.71402 h 1.172281 v 0.71402 h 0.674158 v 0.79869 h -0.674158 v 1.41464 c 0,0.2487 0.124177,0.35983 0.34678,0.35983 0.130881,0 0.229306,-0.0194 0.334081,-0.0589 v 0.89077 c -0.150636,0.0392 -0.373239,0.0981 -0.648406,0.0981 -0.772583,0 -1.204736,-0.37324 -1.204736,-1.17863" /><path
           inkscape:connector-curvature="0"
           id="path16137"
           style="fill:#ffffff;fill-opacity:1;fill-rule:nonzero;stroke:none;stroke-width:0.35277778"
           d="m 74.332281,168.93257 v -0.0526 c 0,-1.09996 0.818444,-1.79388 1.879247,-1.79388 1.054453,0 1.866195,0.67416 1.866195,1.76142 v 0.0522 c 0,1.11337 -0.818445,1.78118 -1.872898,1.78118 -1.0541,0 -1.872544,-0.64171 -1.872544,-1.74837 m 2.553758,-0.0198 v -0.0522 c 0,-0.57644 -0.229305,-0.89711 -0.674511,-0.89711 -0.438503,0 -0.680861,0.30762 -0.680861,0.88406 v 0.0522 c 0,0.58914 0.228953,0.91017 0.680861,0.91017 0.438856,0 0.674511,-0.32738 0.674511,-0.89712" /><path
           d="m 78.475515,165.91939 h 1.165578 v 4.68278 h -1.165578 z"
           style="fill:#ffffff;fill-opacity:1;fill-rule:nonzero;stroke:none;stroke-width:0.35277778"
           id="path16139"
           inkscape:connector-curvature="0" /><path
           inkscape:connector-curvature="0"
           id="path16143"
           style="fill:#ffffff;fill-opacity:1;fill-rule:nonzero;stroke:none;stroke-width:0.35277778"
           d="m 72.405974,164.07073 v -0.85125 h 1.2065 0.306211 v -0.95603 h -0.306211 -1.2065 v -0.80539 h 1.899003 v -1.0347 h -3.234972 v 4.68207 h 3.339747 v -1.0347 z" /><path
           inkscape:connector-curvature="0"
           id="path16147"
           style="fill:#ffffff;fill-opacity:1;fill-rule:nonzero;stroke:none;stroke-width:0.35277778"
           d="m 83.270047,161.58548 v -1.16205 h 0.434622 v 1.13559 c 0,0.31715 0.09313,0.45579 0.354542,0.45579 0.255764,0 0.367594,-0.12277 0.367594,-0.47202 v -1.11936 h 0.434623 v 1.14618 c 0,0.51964 -0.290689,0.78881 -0.805039,0.78881 -0.500945,0 -0.786342,-0.26635 -0.786342,-0.77294" /><path
           inkscape:connector-curvature="0"
           id="path16151"
           style="fill:#ffffff;fill-opacity:1;fill-rule:nonzero;stroke:none;stroke-width:0.35277778"
           d="m 85.15508,160.9351 h 0.386644 v 0.22119 c 0.06914,-0.13864 0.221192,-0.25329 0.452967,-0.25329 0.274461,0 0.469195,0.16545 0.469195,0.53869 v 0.88759 h -0.386645 v -0.83185 c 0,-0.18909 -0.07444,-0.27976 -0.24518,-0.27976 -0.1651,0 -0.290337,0.10125 -0.290337,0.30657 v 0.80504 H 85.15508 Z" /><path
           inkscape:connector-curvature="0"
           id="path16155"
           style="fill:#ffffff;fill-opacity:1;fill-rule:nonzero;stroke:none;stroke-width:0.35277778"
           d="m 86.72286,160.53526 c 0,-0.11994 0.09596,-0.21061 0.218369,-0.21061 0.125589,0 0.221545,0.0907 0.221545,0.21061 0,0.11994 -0.09596,0.21061 -0.221545,0.21061 -0.122413,0 -0.218369,-0.0907 -0.218369,-0.21061 m 0.02928,0.3997 h 0.383822 v 1.39417 H 86.75214 Z" /><path
           inkscape:connector-curvature="0"
           id="path16159"
           style="fill:#ffffff;fill-opacity:1;fill-rule:nonzero;stroke:none;stroke-width:0.35277778"
           d="m 87.304096,160.9351 h 0.413103 l 0.333022,0.99695 0.330906,-0.99695 h 0.372886 l -0.506236,1.39418 h -0.434623 z" /><path
           inkscape:connector-curvature="0"
           id="path16163"
           style="fill:#ffffff;fill-opacity:1;fill-rule:nonzero;stroke:none;stroke-width:0.35277778"
           d="m 88.757188,161.64948 v -0.0215 c 0,-0.43956 0.311856,-0.72496 0.717197,-0.72496 0.359834,0 0.67945,0.21061 0.67945,0.70909 v 0.10689 h -1.004711 c 0.01058,0.23177 0.13582,0.36512 0.346428,0.36512 0.178858,0 0.2667,-0.0773 0.290689,-0.19473 h 0.365125 c -0.04516,0.30127 -0.285397,0.46919 -0.666397,0.46919 -0.421217,0 -0.727781,-0.26387 -0.727781,-0.70908 m 1.020939,-0.16792 c -0.01341,-0.21061 -0.119945,-0.31186 -0.303742,-0.31186 -0.173566,0 -0.290689,0.11466 -0.319969,0.31186 z" /><path
           inkscape:connector-curvature="0"
           id="path16167"
           style="fill:#ffffff;fill-opacity:1;fill-rule:nonzero;stroke:none;stroke-width:0.35277778"
           d="m 90.354248,160.9351 h 0.386644 v 0.2667 c 0.08784,-0.18697 0.223662,-0.2854 0.450498,-0.28787 v 0.35984 c -0.285398,-0.003 -0.450498,0.0907 -0.450498,0.35701 v 0.6985 h -0.386644 z" /><path
           inkscape:connector-curvature="0"
           id="path16171"
           style="fill:#ffffff;fill-opacity:1;fill-rule:nonzero;stroke:none;stroke-width:0.35277778"
           d="m 91.261487,161.89208 h 0.359833 c 0.01588,0.12524 0.07726,0.1972 0.245181,0.1972 0.149578,0 0.218722,-0.0561 0.218722,-0.15204 0,-0.096 -0.08255,-0.13582 -0.282575,-0.1651 -0.370417,-0.0561 -0.514703,-0.16263 -0.514703,-0.43463 0,-0.29033 0.2667,-0.43462 0.552098,-0.43462 0.309033,0 0.541161,0.11218 0.575733,0.43215 h -0.354542 c -0.02152,-0.11465 -0.08537,-0.16827 -0.218722,-0.16827 -0.125236,0 -0.197203,0.0589 -0.197203,0.14429 0,0.0878 0.06668,0.12241 0.26917,0.15169 0.34925,0.0508 0.541161,0.13864 0.541161,0.43744 0,0.30092 -0.21837,0.45826 -0.586317,0.45826 -0.376061,0 -0.59443,-0.1651 -0.607836,-0.46637" /><path
           inkscape:connector-curvature="0"
           id="path16175"
           style="fill:#ffffff;fill-opacity:1;fill-rule:nonzero;stroke:none;stroke-width:0.35277778"
           d="m 92.629277,160.53526 c 0,-0.11994 0.09596,-0.21061 0.218369,-0.21061 0.125589,0 0.221545,0.0907 0.221545,0.21061 0,0.11994 -0.09596,0.21061 -0.221545,0.21061 -0.122413,0 -0.218369,-0.0907 -0.218369,-0.21061 m 0.02928,0.3997 h 0.383822 v 1.39417 h -0.383822 z" /><path
           inkscape:connector-curvature="0"
           id="path16179"
           style="fill:#ffffff;fill-opacity:1;fill-rule:nonzero;stroke:none;stroke-width:0.35277778"
           d="m 93.402424,161.91604 v -0.70626 h -0.178506 v -0.27446 h 0.178506 v -0.30127 h 0.383822 v 0.30127 h 0.293159 v 0.27446 h -0.293159 v 0.67169 c 0,0.11183 0.05609,0.1651 0.154517,0.1651 0.05891,0 0.101247,-0.008 0.146755,-0.0265 v 0.29845 c -0.05327,0.0187 -0.130527,0.0374 -0.234597,0.0374 -0.293158,0 -0.450497,-0.14922 -0.450497,-0.43991" /><path
           inkscape:connector-curvature="0"
           id="path16183"
           style="fill:#ffffff;fill-opacity:1;fill-rule:nonzero;stroke:none;stroke-width:0.35277778"
           d="m 94.716804,162.18789 -0.554567,-1.25271 h 0.415925 l 0.338667,0.83679 0.311856,-0.83679 h 0.370416 l -0.754239,1.86866 h -0.373239 z" /><path
           inkscape:connector-curvature="0"
           id="path16187"
           style="fill:#ffffff;fill-opacity:1;fill-rule:nonzero;stroke:none;stroke-width:0.35277778"
           d="m 83.166084,164.4118 v -0.0212 c 0,-0.43744 0.317147,-0.72249 0.735542,-0.72249 0.418747,0 0.733072,0.27976 0.733072,0.71438 v 0.0212 c 0,0.43991 -0.317147,0.71966 -0.735542,0.71966 -0.415925,0 -0.733072,-0.27693 -0.733072,-0.71155 m 1.077031,-0.005 v -0.0187 c 0,-0.2667 -0.125237,-0.42651 -0.341489,-0.42651 -0.213078,0 -0.341136,0.15452 -0.341136,0.42122 v 0.0212 c 0,0.2667 0.122766,0.4265 0.341136,0.4265 0.216252,0 0.341489,-0.1598 0.341489,-0.42368" /><path
           inkscape:connector-curvature="0"
           id="path16191"
           style="fill:#ffffff;fill-opacity:1;fill-rule:nonzero;stroke:none;stroke-width:0.35277778"
           d="m 84.904431,163.97464 h -0.183797 v -0.27446 h 0.183797 v -0.16016 c 0,-0.32526 0.189089,-0.48754 0.498475,-0.48754 0.08255,0 0.138642,0.008 0.200025,0.0265 v 0.29069 c -0.03739,-0.0134 -0.08537,-0.024 -0.141464,-0.024 -0.122414,0 -0.173214,0.0773 -0.173214,0.18379 v 0.17075 h 0.303742 v 0.27446 h -0.303742 v 1.11972 h -0.383822 z" /><path
           inkscape:connector-curvature="0"
           id="path16195"
           style="fill:#ffffff;fill-opacity:1;fill-rule:nonzero;stroke:none;stroke-width:0.35277778"
           d="m 86.373469,164.681 v -0.70626 h -0.178506 v -0.27446 h 0.178506 v -0.30163 h 0.383822 v 0.30163 h 0.293159 v 0.27446 h -0.293159 v 0.67169 c 0,0.11183 0.05574,0.1651 0.154517,0.1651 0.05891,0 0.101247,-0.008 0.146755,-0.0265 v 0.29845 c -0.05327,0.0187 -0.130527,0.0374 -0.234597,0.0374 -0.293158,0 -0.450497,-0.14922 -0.450497,-0.43991" /><path
           inkscape:connector-curvature="0"
           id="path16199"
           style="fill:#ffffff;fill-opacity:1;fill-rule:nonzero;stroke:none;stroke-width:0.35277778"
           d="m 87.266667,163.06831 h 0.386644 v 0.85302 c 0.06914,-0.13865 0.221192,-0.2533 0.452967,-0.2533 0.274814,0 0.469195,0.16545 0.469195,0.53869 v 0.88759 h -0.386645 v -0.83185 c 0,-0.18909 -0.07444,-0.27975 -0.24518,-0.27975 -0.1651,0 -0.290337,0.10125 -0.290337,0.30656 v 0.80504 h -0.386644 z" /><path
           inkscape:connector-curvature="0"
           id="path16203"
           style="fill:#ffffff;fill-opacity:1;fill-rule:nonzero;stroke:none;stroke-width:0.35277778"
           d="m 88.767771,164.41444 v -0.0212 c 0,-0.43991 0.311856,-0.72531 0.717197,-0.72531 0.359834,0 0.67945,0.21061 0.67945,0.70909 v 0.10689 h -1.004711 c 0.01058,0.23177 0.13582,0.36512 0.346428,0.36512 0.178858,0 0.2667,-0.0773 0.290689,-0.19473 h 0.365125 c -0.04516,0.30127 -0.285397,0.46919 -0.666397,0.46919 -0.421217,0 -0.727781,-0.26387 -0.727781,-0.70908 m 1.020939,-0.16792 c -0.01341,-0.21061 -0.119945,-0.31186 -0.303742,-0.31186 -0.173214,0 -0.290689,0.11466 -0.319969,0.31186 z" /><path
           inkscape:connector-curvature="0"
           id="path16207"
           style="fill:#ffffff;fill-opacity:1;fill-rule:nonzero;stroke:none;stroke-width:0.35277778"
           d="m 83.136768,165.93054 h 0.437092 l 0.29845,1.31692 0.325261,-1.31692 h 0.367947 l 0.338667,1.32468 0.309033,-1.32468 h 0.40005 l -0.463903,1.90606 h -0.439914 l -0.343958,-1.31692 -0.348897,1.31692 h -0.415925 z" /><path
           inkscape:connector-curvature="0"
           id="path16211"
           style="fill:#ffffff;fill-opacity:1;fill-rule:nonzero;stroke:none;stroke-width:0.35277778"
           d="m 85.541583,167.15673 v -0.0212 c 0,-0.43991 0.311856,-0.72531 0.717197,-0.72531 0.359834,0 0.67945,0.21061 0.67945,0.70909 v 0.10689 h -1.004711 c 0.01058,0.23177 0.13582,0.36512 0.346428,0.36512 0.178858,0 0.2667,-0.0773 0.290689,-0.19473 h 0.365125 c -0.04516,0.30127 -0.285397,0.46919 -0.666397,0.46919 -0.421217,0 -0.727781,-0.26387 -0.727781,-0.70908 m 1.020939,-0.16792 c -0.01341,-0.21061 -0.119945,-0.31186 -0.303742,-0.31186 -0.173566,0 -0.290689,0.11466 -0.319969,0.31186 z" /><path
           inkscape:connector-curvature="0"
           id="path16215"
           style="fill:#ffffff;fill-opacity:1;fill-rule:nonzero;stroke:none;stroke-width:0.35277778"
           d="m 87.050661,167.3993 h 0.359833 c 0.01587,0.12524 0.07726,0.1972 0.245181,0.1972 0.149225,0 0.218722,-0.0561 0.218722,-0.15204 0,-0.096 -0.08255,-0.13582 -0.282575,-0.1651 -0.370417,-0.0561 -0.514703,-0.16263 -0.514703,-0.43463 0,-0.29033 0.2667,-0.43462 0.552098,-0.43462 0.309033,0 0.540808,0.11218 0.575733,0.43215 h -0.354542 c -0.02152,-0.11465 -0.08537,-0.16827 -0.218722,-0.16827 -0.125236,0 -0.197203,0.0589 -0.197203,0.14429 0,0.0878 0.06668,0.12241 0.26917,0.15169 0.34925,0.0508 0.541161,0.13864 0.541161,0.43744 0,0.30092 -0.21837,0.45826 -0.586317,0.45826 -0.376061,0 -0.59443,-0.1651 -0.607836,-0.46637" /><path
           inkscape:connector-curvature="0"
           id="path16219"
           style="fill:#ffffff;fill-opacity:1;fill-rule:nonzero;stroke:none;stroke-width:0.35277778"
           d="m 88.495709,167.42325 v -0.70626 h -0.178506 v -0.27446 h 0.178506 v -0.30163 h 0.383822 v 0.30163 h 0.293159 v 0.27446 h -0.293159 v 0.67169 c 0,0.11183 0.05609,0.1651 0.154517,0.1651 0.05891,0 0.101247,-0.008 0.146755,-0.0265 v 0.29845 c -0.05327,0.0187 -0.130527,0.0374 -0.234597,0.0374 -0.293158,0 -0.450497,-0.14922 -0.450497,-0.43991" /><path
           inkscape:connector-curvature="0"
           id="path16223"
           style="fill:#ffffff;fill-opacity:1;fill-rule:nonzero;stroke:none;stroke-width:0.35277778"
           d="m 89.773788,167.15404 v -0.0212 c 0,-0.43744 0.317147,-0.72249 0.735542,-0.72249 0.418747,0 0.733072,0.27976 0.733072,0.71438 v 0.0212 c 0,0.43991 -0.317147,0.71966 -0.735542,0.71966 -0.415925,0 -0.733072,-0.27693 -0.733072,-0.71155 m 1.077031,-0.005 v -0.0187 c 0,-0.2667 -0.125237,-0.42651 -0.341489,-0.42651 -0.213078,0 -0.341136,0.15452 -0.341136,0.42122 v 0.0212 c 0,0.2667 0.122766,0.4265 0.341136,0.4265 0.216252,0 0.341489,-0.1598 0.341489,-0.42368" /><path
           inkscape:connector-curvature="0"
           id="path16227"
           style="fill:#ffffff;fill-opacity:1;fill-rule:nonzero;stroke:none;stroke-width:0.35277778"
           d="m 91.512171,166.71688 h -0.183797 v -0.27446 h 0.183797 v -0.16016 c 0,-0.32491 0.189089,-0.48754 0.498475,-0.48754 0.08255,0 0.138642,0.008 0.200025,0.0265 v 0.29069 c -0.03739,-0.0134 -0.08537,-0.024 -0.141464,-0.024 -0.122414,0 -0.173214,0.0773 -0.173214,0.18379 v 0.17075 h 0.303742 v 0.27446 h -0.303742 v 1.11972 h -0.383822 z" /><path
           inkscape:connector-curvature="0"
           id="path16231"
           style="fill:#ffffff;fill-opacity:1;fill-rule:nonzero;stroke:none;stroke-width:0.35277778"
           d="m 83.286028,168.69551 h 1.242131 v 0.33584 h -0.8128 v 0.44521 h 0.650169 v 0.31432 h -0.650169 v 0.47484 h 0.855486 v 0.33585 h -1.284817 z" /><path
           inkscape:connector-curvature="0"
           id="path16235"
           style="fill:#ffffff;fill-opacity:1;fill-rule:nonzero;stroke:none;stroke-width:0.35277778"
           d="m 84.784452,169.20732 h 0.386644 v 0.22119 c 0.06914,-0.13864 0.221192,-0.25329 0.452967,-0.25329 0.274814,0 0.469195,0.16545 0.469195,0.53869 v 0.88759 h -0.386645 v -0.83185 c 0,-0.18909 -0.07444,-0.27976 -0.24518,-0.27976 -0.1651,0 -0.290337,0.10125 -0.290337,0.30657 v 0.80504 h -0.386644 z" /><path
           inkscape:connector-curvature="0"
           id="path16239"
           style="fill:#ffffff;fill-opacity:1;fill-rule:nonzero;stroke:none;stroke-width:0.35277778"
           d="m 86.29621,170.6307 h 0.383822 c 0.02399,0.12277 0.111831,0.20249 0.309386,0.20249 0.234245,0 0.35172,-0.12241 0.35172,-0.34113 v -0.21061 c -0.07726,0.13582 -0.242711,0.25859 -0.447675,0.25859 -0.338667,0 -0.607836,-0.2533 -0.607836,-0.6664 v -0.0187 c 0,-0.3997 0.266347,-0.67945 0.612775,-0.67945 0.226836,0 0.362655,0.0984 0.442736,0.23989 v -0.20814 h 0.383822 v 1.28482 c -0.0028,0.4131 -0.277283,0.62371 -0.735542,0.62371 -0.45085,0 -0.655814,-0.1972 -0.693208,-0.48507 m 1.055511,-0.76235 v -0.0187 c 0,-0.23742 -0.125236,-0.381 -0.335844,-0.381 -0.2159,0 -0.335845,0.15452 -0.335845,0.38382 v 0.0212 c 0,0.23213 0.13582,0.37606 0.328084,0.37606 0.202494,0 0.343605,-0.14393 0.343605,-0.38135" /><path
           d="m 88.023798,168.57546 h 0.383822 v 2.026 h -0.383822 z"
           style="fill:#ffffff;fill-opacity:1;fill-rule:nonzero;stroke:none;stroke-width:0.35277778"
           id="path16241"
           inkscape:connector-curvature="0" /><path
           inkscape:connector-curvature="0"
           id="path16245"
           style="fill:#ffffff;fill-opacity:1;fill-rule:nonzero;stroke:none;stroke-width:0.35277778"
           d="m 88.615795,170.21492 c 0,-0.32526 0.29845,-0.44803 0.724958,-0.44803 h 0.157339 v -0.0557 c 0,-0.16545 -0.0508,-0.25611 -0.226483,-0.25611 -0.152047,0 -0.221192,0.0773 -0.23742,0.19755 h -0.365125 c 0.02399,-0.33055 0.285398,-0.47731 0.626534,-0.47731 0.341136,0 0.583847,0.13865 0.583847,0.51718 v 0.9091 h -0.376061 v -0.16827 c -0.07973,0.11218 -0.202495,0.19755 -0.421217,0.19755 -0.252941,0 -0.466372,-0.12276 -0.466372,-0.41592 m 0.882297,-0.10125 v -0.11747 h -0.149225 c -0.224014,0 -0.354541,0.048 -0.354541,0.19755 0,0.1009 0.06138,0.16757 0.202494,0.16757 0.170744,0 0.301272,-0.0931 0.301272,-0.24765" /><path
           inkscape:connector-curvature="0"
           id="path16249"
           style="fill:#ffffff;fill-opacity:1;fill-rule:nonzero;stroke:none;stroke-width:0.35277778"
           d="m 90.156869,169.20732 h 0.386644 v 0.22119 c 0.06914,-0.13864 0.221192,-0.25329 0.452967,-0.25329 0.274814,0 0.469195,0.16545 0.469195,0.53869 v 0.88759 H 91.07903 v -0.83185 c 0,-0.18909 -0.07444,-0.27976 -0.24518,-0.27976 -0.1651,0 -0.290337,0.10125 -0.290337,0.30657 v 0.80504 h -0.386644 z" /><path
           inkscape:connector-curvature="0"
           id="path16253"
           style="fill:#ffffff;fill-opacity:1;fill-rule:nonzero;stroke:none;stroke-width:0.35277778"
           d="m 91.660655,169.92437 v -0.0212 c 0,-0.45861 0.263878,-0.72778 0.613128,-0.72778 0.223661,0 0.362655,0.0984 0.439914,0.23989 v -0.83961 h 0.383822 v 2.02565 h -0.383822 v -0.23177 c -0.07197,0.14111 -0.242711,0.26105 -0.448028,0.26105 -0.338314,0 -0.605014,-0.24236 -0.605014,-0.70626 m 1.063625,-0.0134 v -0.0212 c 0,-0.27729 -0.122767,-0.41875 -0.333375,-0.41875 -0.2159,0 -0.335844,0.14676 -0.335844,0.42404 v 0.0212 c 0,0.27728 0.13335,0.41345 0.325261,0.41345 0.202494,0 0.343958,-0.13617 0.343958,-0.41875" /></g><g
         id="g944"
         transform="matrix(0.06349287,0,0,0.06349287,103.12366,158.22364)">
	<path
   id="path900"
   d="m 360,181.6 c 4.3,-0.2 11.3,-0.5 15.1,-0.5 21.1,0 28.3,11 28.3,23 0,13.4 -8.2,19.9 -24.7,19.9 H 360 Z m -14.2,87.2 c 0,10.8 -2.8,14.1 -16.8,14.1 h -4 v 3.3 h 62.9 c 27.7,0 37.1,-19.1 37.1,-32.6 0,-13.4 -9.4,-23.9 -25.6,-28.7 v -0.3 c 11.5,-2.1 19.6,-11.2 19.6,-20.9 0,-8.2 -3.4,-14.1 -10.5,-19.1 -6.2,-4.5 -19.4,-6.7 -34.5,-6.7 -3.3,0 -16.3,0.2 -25.8,0.5 -5,0.2 -16.8,0.9 -21.6,1 v 3.3 h 6 c 12,0 13.2,5.2 13.2,14.9 z M 360,227.3 h 18.5 c 20.1,0 30.2,13.6 30.2,26.8 0,13.4 -6.5,27.5 -29.2,27.5 -14.4,0 -19.6,-4.6 -19.6,-17.7 v -36.6 z"
   inkscape:connector-curvature="0"
   style="fill:#1e1e1c" />
	<path
   id="path902"
   d="m 598.9,182.6 v -3.3 h -41.7 v 3.3 c 9.6,0.5 12.9,3.1 12.9,12.4 v 73.2 c 0,11.2 -2.1,14.1 -12,14.7 -13.1,-0.7 -18.7,-5.8 -28.1,-15.2 l -13.6,-13.6 c -8.1,-8.1 -13.2,-12.9 -19.6,-17.9 14.1,-4.1 22.8,-14.9 22.8,-27.8 0,-17.5 -14.3,-30.6 -46,-30.6 -11.2,0 -14.6,0.2 -21.6,0.5 -7,0.3 -17.5,1 -21.6,1 v 3.3 h 3.8 c 10,0 12.9,3.1 12.9,13.7 v 72.3 c 0,11.5 -3.6,14.3 -13.7,14.3 h -2.9 v 3.3 H 479 v -3.3 h -4 c -9.6,0 -13.7,-2.6 -13.7,-12.9 v -29 c 2.7,0.2 5,0.4 8.8,0.4 4.6,0 7.4,-0.2 11.7,-0.4 4.1,2.8 10.1,7.7 17.7,15.3 l 11.3,11.3 c 14.8,14.9 21.2,19.6 49.1,18.5 h 38.9 v -3.3 c -11.8,0 -14.6,-3.4 -14.6,-13.6 v -72.8 c 0.1,-11.4 3.9,-13.8 14.7,-13.8 z M 472,238.1 c -4,0 -6.5,0.2 -10.7,-0.3 v -56.3 c 3.1,-0.3 5.3,-0.3 8.6,-0.3 26.5,0 33.7,12.4 33.7,28.3 0,20.5 -12.5,28.6 -31.6,28.6 z"
   inkscape:connector-curvature="0"
   style="fill:#1e1e1c" />
	<path
   id="path904"
   d="m 610.6,260.1 c 3.6,15.3 15.6,24.2 29,24.2 11.5,0 23.7,-6.7 23.7,-20.3 0,-24.7 -55.1,-32.3 -55.1,-62.3 0,-14.3 13.1,-24.9 30.6,-24.9 14.4,0 17.3,4.3 23.4,4.3 1.4,0 2.1,-0.3 3.1,-1.7 h 2.7 l 2.9,21.8 H 668 c -4.8,-12.4 -15.8,-20.3 -27.7,-20.3 -11.3,0 -19.2,6.5 -19.2,16.1 0,24.4 55.1,30.9 55.1,62.5 0,16.8 -14.9,29.4 -35,29.4 -9.4,0 -21.5,-4.6 -23.9,-4.6 -1.5,0 -2.8,0.9 -3.4,1.9 H 611 l -3.6,-26.1 z"
   inkscape:connector-curvature="0"
   style="fill:#1e1e1c" />
	<path
   id="path906"
   d="m 742.3,270.4 c 0,9.3 3.1,12.5 13.6,12.5 h 6.4 v 3.3 h -54.1 v -3.3 h 6.4 c 10.5,0 13.6,-3.3 13.6,-12.5 v -84.8 h -29.9 c -6.9,0 -10,3.9 -12.5,19.1 h -3.1 l 2.7,-27.8 h 3.3 c 0.2,1 0.9,1.7 1.9,2.1 1,0.3 2.2,0.5 3.4,0.5 h 82.6 c 2.4,0 5,-0.5 5.3,-2.6 h 3.3 l 2.8,27.8 h -3.1 c -2.6,-15.1 -5.7,-19.1 -12.5,-19.1 h -29.9 v 84.8 z"
   inkscape:connector-curvature="0"
   style="fill:#1e1e1c" />
	<path
   id="path908"
   d="m 897.4,235.5 c 0,24.4 -13.4,49.1 -41.4,49.1 -27.7,0 -49.5,-22.7 -49.5,-54.8 0,-20.6 12,-48.8 42.2,-48.8 28.4,0.1 48.7,22.6 48.7,54.5 z m 16.1,-5.6 c 0,-30.9 -27.8,-53.1 -60.3,-53.1 -36.6,0 -62.9,24.2 -62.9,58.4 0,32.1 28.3,53.8 62,53.8 33.4,-0.1 61.2,-24.4 61.2,-59.1 z"
   inkscape:connector-curvature="0"
   style="fill:#1e1e1c" />
	<path
   id="path910"
   d="m 993.3,286.2 h -76.8 v -3.3 h 5.7 c 7.9,0 10.8,-2.6 10.8,-11.3 v -76.1 c 0,-9.1 -2.7,-12.9 -13.6,-12.9 H 917 v -3.3 h 50.7 v 3.3 h -6.4 c -11.2,0 -14.1,1.2 -14.1,11.9 v 79.2 c 0,4.6 1.9,6.4 6.9,6.4 h 25.2 c 10.1,0 13.2,-4 24,-18.9 h 3.1 z"
   inkscape:connector-curvature="0"
   style="fill:#1e1e1c" />
	<path
   id="path912"
   d="m 191.1,130.3 c -0.1,-10 -3.5,-30.4 -27.4,-42 24.3,7.7 36,28.2 37.2,43.5 25.5,5.1 48.1,17.1 84.9,4.4 l 0.1,-0.1 c 0,0 -48.3,0.4 -68.6,-14.2 10.4,0.4 22.5,-2 26.4,-7.9 4.2,-6.3 4.6,-12.8 15,-13.1 5.8,-0.2 25.5,1.3 27.6,-27.6 -6.3,10.6 -13.1,15 -23.4,12.4 C 256.3,84 244.3,79 235.7,89.2 228.6,97.7 221,102.1 208.8,100.8 213.5,94.2 286,0.2 286,0.2 c 0,0 -92.8,74.5 -97.9,78.8 -1,-13.6 3.1,-18.6 8.5,-24.6 4.5,-4.9 12.2,-11.5 6,-25.5 -5,-11.3 -4.3,-18.1 9.3,-29 -10.8,0.8 -27.4,8.1 -25.4,28 1.2,12 -7.3,13.1 -10.4,14.8 -8.1,4.5 -9.1,17.5 -9.4,27.6 -1,-3.3 -12.7,-53.8 -16.8,-70.1 0,0 0,136 0,136 h 0.3 c 15.7,-6.3 28.8,-7.2 40.9,-5.9 z"
   inkscape:connector-curvature="0"
   style="fill:#a56467;fill-opacity:1" />
	<path
   id="path914"
   d="m 421.9,56.9 v 2.4 c -8.5,0.1 -11.6,3.6 -11.6,11.7 v 34.4 c 0,15.8 -10.1,32.7 -37.7,32.7 -24.3,0 -36.8,-13.9 -36.8,-32.1 V 68.9 c 0,-8.2 -2.3,-9.4 -11,-9.6 v -2.4 h 32.7 v 2.4 h -1.1 c -7,0 -10.1,1.9 -10.1,9.3 V 104 c 0,17.2 10.1,27.5 29,27.5 14.4,0 29,-6 29,-27.6 V 74.2 c 0,-12.2 -1.9,-14.4 -12.5,-14.9 v -2.4 z"
   inkscape:connector-curvature="0"
   style="fill:#1e1e1c" />
	<path
   id="path916"
   d="m 438.6,125 c 0,7 1.7,8.7 8.5,8.7 v 2.4 h -25.6 v -2.4 c 5.6,0 8.5,-3.1 8.5,-8 V 98.9 c 0,-4.7 -0.5,-5.6 -3.8,-6.2 l -4.3,-0.9 v -2 l 14.6,-5.3 h 2 v 9.9 c 8.5,-5.3 15.7,-10.1 21.9,-10.1 8.7,0 13.6,6.4 13.6,19.1 0,16.9 -0.9,20.2 -1,25.2 -0.1,3.4 1.9,5.1 7.1,5.1 h 2.8 v 2.4 h -27.4 v -2.4 c 3.7,-0.1 5.9,-1 7.3,-2.4 2.4,-2.4 2.7,-11.7 2.7,-28.7 0,-10.2 -5,-13.4 -10.1,-13.4 -4.1,0 -10.3,3.6 -16.9,8.2 V 125 Z"
   inkscape:connector-curvature="0"
   style="fill:#1e1e1c" />
	<path
   id="path918"
   d="m 507.4,126.4 c 0,4.5 2.4,7.3 9.2,7.3 v 2.4 h -28.3 v -2.4 c 7.8,0 10.6,-2.5 10.6,-9.3 V 98.8 c 0,-5 -0.6,-5.6 -3.9,-6.2 l -6,-1.1 v -2 l 16.6,-5.7 h 1.9 v 42.6 z M 502.2,55 c 3.1,0 5.6,2.2 5.6,4.8 0,2.7 -2.5,4.8 -5.6,4.8 -3.1,0 -5.5,-2.2 -5.5,-4.8 0,-2.7 2.4,-4.8 5.5,-4.8 z"
   inkscape:connector-curvature="0"
   style="fill:#1e1e1c" />
	<path
   id="path920"
   d="M 545.6,137.2 527.2,95 c -1.9,-4.5 -3.6,-6 -5.6,-6.4 l -4,-0.6 v -2.3 h 26 V 88 c -7.8,0.3 -10.2,1.3 -7.1,7.3 L 550,127 563,97.6 c 2.3,-5.2 1.1,-8.9 -8.2,-9.6 V 85.7 H 577 V 88 c -4.8,0.9 -7.6,3.7 -10.1,9.3 l -17.6,40 h -3.7 z"
   inkscape:connector-curvature="0"
   style="fill:#1e1e1c" />
	<path
   id="path922"
   d="m 587.7,100.4 c 2.9,-11.8 9.3,-13.8 13.5,-13.8 6.1,0 11.2,5.5 12.6,13.8 z m 36.8,3.3 v -2.9 c -4.2,-4.2 -3.8,-16.6 -21,-16.6 -15.5,0 -24.6,13.8 -24.6,27.3 0,14.8 9.7,26.1 22.2,26.1 9.3,0 17.3,-6.4 22.7,-13.1 l -1.4,-1.5 c -4.8,5.7 -9.8,8.3 -16.2,8.3 -10.1,0 -19.4,-8.9 -19.4,-22.2 0,-1.7 0.3,-3.4 0.5,-5.4 z"
   inkscape:connector-curvature="0"
   style="fill:#1e1e1c" />
	<path
   id="path924"
   d="m 649,126.8 c 0,5.2 1.9,6.9 8.3,6.9 h 4.8 v 2.4 H 632 v -2.4 c 6.5,-0.1 8.5,-2.8 8.5,-9.6 V 94.7 L 632,91.6 v -2.2 l 14.5,-5.1 h 2.5 v 13.5 h 0.3 c 6.4,-10.4 7.9,-12.9 12.1,-12.9 1.5,0 1.9,0.1 4.3,1.1 1.3,0.5 3.6,1 6.6,1.9 l -3.1,7.6 c -1.9,-0.3 -4.3,-0.9 -6.8,-2 -1.4,-0.6 -2.9,-1.3 -4.5,-1.3 -2.3,0 -3.7,1.5 -5,3.3 -1.7,2.3 -3.1,4.5 -4.1,6.4 v 24.9 z"
   inkscape:connector-curvature="0"
   style="fill:#1e1e1c" />
	<path
   id="path926"
   d="m 681.1,123.2 c 1.5,7.6 6.4,12 12.1,12 5.1,0 9,-3.8 9,-8.4 0,-2.7 -0.6,-4.3 -4.1,-7.8 -9,-9 -19.1,-9.9 -19.1,-20.5 0,-8.4 6.6,-14.3 16.3,-14.3 3.4,0 7,0.8 10.2,2 l 0.3,11.6 h -2.2 c -0.9,-6.5 -5.1,-10.6 -10.2,-10.6 -4.2,0 -7.8,2.9 -7.8,7.1 0,11.2 23.7,13.1 23.7,28.7 0,8.3 -6.9,14.5 -15.8,14.5 -2.4,0 -4.2,-0.4 -5.6,-0.9 -1.4,-0.4 -2.4,-0.8 -3.4,-0.8 -0.8,0 -1.5,0.5 -2.2,1.5 h -1.9 L 679,123 h 2.1 z"
   inkscape:connector-curvature="0"
   style="fill:#1e1e1c" />
	<path
   id="path928"
   d="m 736.3,126.4 c 0,4.5 2.4,7.3 9.2,7.3 v 2.4 h -28.3 v -2.4 c 7.8,0 10.6,-2.5 10.6,-9.3 V 98.8 c 0,-5 -0.6,-5.6 -3.9,-6.2 l -6,-1.1 v -2 l 16.6,-5.7 h 1.9 v 42.6 z M 731.1,55 c 3.1,0 5.6,2.2 5.6,4.8 0,2.7 -2.5,4.8 -5.6,4.8 -3,0 -5.5,-2.2 -5.5,-4.8 0,-2.7 2.4,-4.8 5.5,-4.8 z"
   inkscape:connector-curvature="0"
   style="fill:#1e1e1c" />
	<path
   id="path930"
   d="m 781.8,85.7 -2,5.6 H 763.6 V 121 c 0,8 5.7,10.7 8.4,10.7 2.8,0 5.3,-2.2 7.8,-6.4 l 2,1.9 c -3.1,6.6 -8,10.4 -13.9,10.4 -7.5,0 -12.9,-6.2 -12.9,-14.8 V 91.3 h -5.9 v -2 c 5,-2.4 9.3,-8.3 12.2,-16.2 h 2.2 v 12.6 z"
   inkscape:connector-curvature="0"
   style="fill:#1e1e1c" />
	<path
   id="path932"
   d="M 832.1,99.8 C 835.9,90.1 833.5,88.2 826,88 v -2.3 h 21.1 V 88 c -5.2,0.6 -8.1,4.2 -10.6,10.2 l -21.6,54 c -3.8,9.4 -6.8,13.6 -11.2,13.6 -3.1,0 -5.2,-1.9 -5.2,-4.5 0,-5.2 7.4,-3.9 10.6,-7.1 1.4,-1.4 3.3,-4.7 4.3,-7.3 l 3.8,-9.6 -19.7,-41.9 C 795.1,90.2 792.8,88 787.4,87.9 V 85.6 H 813 V 88 c -7.8,0.1 -8.7,2.4 -6.1,7.8 l 14.4,31.1 z"
   inkscape:connector-curvature="0"
   style="fill:#1e1e1c" />
	<path
   id="path934"
   d="m 885.3,106.9 c 0,-11 7.8,-19.6 16.2,-19.6 10.7,0 19.6,12.4 19.6,26.9 0,12.7 -8.5,20.4 -16,20.4 -11,0 -19.8,-12.3 -19.8,-27.7 z m -9.6,4.4 c 0,14.9 12.1,26.4 27.9,26.4 15.2,0 27,-11.6 27,-26.6 0,-15.2 -11.8,-26.7 -27.4,-26.7 -13.2,-0.1 -27.5,9.3 -27.5,26.9 z"
   inkscape:connector-curvature="0"
   style="fill:#1e1e1c" />
	<path
   id="path936"
   d="m 967.6,91.3 h -13.8 v 34.9 c 0,5.9 2.3,7.5 9.4,7.5 h 4.8 v 2.4 h -31.5 v -2.4 c 7.4,0 8.7,-1.7 8.7,-8.8 V 91.3 h -9.4 v -2.2 c 3.6,-0.8 6.6,-1.9 9.4,-3.4 0,-10.6 2.3,-18.6 9.8,-26.1 6.2,-6.2 12.2,-9 18.1,-9 7.1,0 13.1,4.1 13.1,6 0,1 -2.4,6.1 -3.4,6.1 -1.8,0 -6.5,-6.2 -14.9,-6.2 -9.2,0 -14.1,7.3 -14.1,19.6 v 9.7 h 12.9 z"
   inkscape:connector-curvature="0"
   style="fill:#1e1e1c" />
	<path
   id="path938"
   d="m 135.7,0.2 c 0,0 0,133.8 0,136 C 81,114.6 58.2,156.4 0,136.1 0,136.7 0,0.1 0,0.1 H 27.7 V 14.8 H 43.6 V 0.1 H 59.2 V 14.8 H 75 V 0.1 h 15.8 v 14.7 h 17.1 V 0.2 Z M 35.1,39.7 c 6.2,0.3 13.8,-3.5 14.3,-3.9 0,0 -2.6,6.6 3.3,6.2 6.4,-0.4 13.8,-3.7 14.8,-4.2 v -8.5 c -0.6,0.4 -6.8,4.8 -13.9,6.4 -2.6,0.6 -1.7,-1.7 -1.4,-3 0.3,-1.3 0.4,-2.4 -4.2,-0.5 -19,7.9 -20,2.5 -20,1.8 -0.7,1 -0.4,5.3 7.1,5.7 z m 55.5,0.4 c 0,0 -24.7,3.5 -31.8,4.2 -4.9,2.9 -10.5,11 -10.5,11 0,0 -5.8,0.9 -17.3,3 -8,5.2 -12.9,17.5 -2.9,27.4 -3.2,-0.7 -3.2,-0.7 -7.7,-1.4 -9.8,6.3 -5.3,18 15.2,13.9 -5.8,-0.2 -8.7,-3 -8.6,-6.7 -0.1,-4 7.7,-9 17.2,-6.4 -9.1,-17.1 1,-23.9 1,-23.9 0,0 -5.3,14.2 6.3,25.7 1,-1.7 4.5,-6.5 14.3,-6.7 9.7,-0.2 15.9,4.6 16,10.1 0.1,4.9 -6,10 -14.1,10 L 67.6,88.7 c 0,0 -2.6,0.9 -3.3,2 0,0.5 -0.1,9.8 -0.1,9.8 -3.2,0 -9.6,-1.3 -13,-6.8 -2.6,-0.3 -17.3,-2.4 -17.3,-2.4 l 0.8,3.9 c 0,0 5.1,0.9 6.1,6 1.2,6.2 4.7,11.9 7.9,14.2 6.1,-0.7 16.2,-8.4 34.8,-8.1 -17.1,2.4 -34.4,20.6 -59.4,13.7 39.7,13.5 43.7,-16.5 93.4,-7.1 -7.7,-4.7 -19.3,-6.2 -19.3,-6.2 0,0 6.2,-6.7 6.4,-16.9 0.8,0 1.8,-0.1 3.8,-0.3 0.7,-3.3 1.1,-6.6 1.1,-6.6 0,0 -10.8,0 -19.9,0 -22.1,-22.7 1,-43.8 1,-43.8 z M 100,73.7 C 98.9,68.1 99.5,56.9 105,45.9 84.7,61.2 84.4,73.7 84.4,73.7 c 0,0 3.9,-3 15.6,0 z"
   inkscape:connector-curvature="0"
   style="fill:#a56467;fill-opacity:1" />
	<path
   id="path940"
   d="m 285.6,150.1 c 0,-2.2 0,136.1 0,136.1 -75.3,18.3 -77.4,-21.7 -135.7,0 0,1.8 0,-136.1 0,-136.1 53.5,-22.4 74.4,20.1 135.7,0 z m -30.3,15.4 c -12.1,4.2 -10.3,17.3 -7.1,22.3 4.3,6.6 7.9,6.7 10.6,14.4 2.1,6 -1.7,9.2 -5.4,10.5 6.4,3.9 13,-0.1 15.4,-4.1 4.4,-5.8 -0.6,-13.3 4.1,-17.3 1.2,-1.1 3.3,-1.8 6.2,-1.9 -2.8,-4 -9.5,-3.5 -12.1,0.2 -1.9,-4.3 -7.1,-8.1 -5.2,-14.8 1.2,-4.4 8.2,-6 10.8,-2.4 1.4,2 1.6,5.8 -2.6,7.8 2.6,-0.2 7.6,-4.7 4.2,-10.9 -2.4,-4.3 -6.4,-4.7 -9.7,-4.7 -6,0 -15.9,6.8 -9.6,21.6 -3.6,-3.2 -9.5,-14.5 0.4,-20.7 z m -76.5,26.4 c 0,0 -1.9,2.4 0.2,3 0,0.7 0.3,2 0.6,2.8 0.4,1 1,0.6 1.7,-0.2 0.7,-0.8 1.8,-2.3 2.6,-3.1 0.7,-0.8 3.3,-0.5 2.3,1.1 -0.7,1 -1.2,1.3 -2.1,1.5 -0.7,0.2 -0.9,-0.4 -1.7,0.6 -0.8,1.1 -1.7,1.8 -0.2,1.8 0.7,0 2.1,0.7 3.1,0.5 0.9,-0.1 1,-0.7 1.1,-1.5 0.1,-0.8 -0.1,-1.3 0.9,-1.8 1.2,-0.7 2.9,-2.2 3.4,-2.8 0.6,-0.6 1.4,-0.5 2.2,-0.5 0.8,0 4.6,0.5 6.9,-2.9 1.6,-2.4 1.8,-5.7 1.2,-8.6 1.1,1.1 2.5,4.5 1.8,7.7 -1.4,5.7 -4.2,6 -7,6.6 -1.2,1.7 -4.2,6 -5.8,13.8 -0.7,0.5 -6.4,6 -1.6,15 -1.2,0.4 -4.9,2 -7,2.4 -1.4,0.3 -2.7,0.4 -3.2,1.1 -0.7,0.8 -2.2,3.3 -1.4,4.6 0.6,0.9 4.1,8.9 4.4,11.4 0.3,2.5 1.2,3 2.1,3.8 1,0.9 1.6,0.8 3,1.9 1.4,1 2.6,2.9 3.8,3.9 1.4,1.1 2.9,1.6 4,1.5 -0.3,-4 -1.1,-7.9 -2.4,-9.3 -1.3,-1.4 -2.9,0.6 -3.3,0.7 -0.4,0.1 -0.9,-0.3 -1.2,-1.4 -0.2,-1.1 0.8,-2.1 -0.2,-3.5 -1.8,-2.7 -3.6,-5.8 -3.8,-6.3 -1.3,-2.5 0.9,-3.2 1.4,-3 1.3,0.3 9,1.3 10.1,1.4 1.2,0.1 1.8,0.3 2.4,-0.3 1.6,-1.8 2.6,-3.2 3.5,-5 1.7,1.3 0.5,3.7 0,6.7 0.5,0.4 11.6,6 26.9,2 6.4,-1.7 5.7,-0.4 6.3,0.8 3.7,7.2 6.3,10 10.7,13.5 1.3,1.1 2.2,2.8 2.8,3.7 0.6,1 0.7,2.7 0.3,3.9 -0.6,1.4 -4,7.5 -4.6,8.4 -1.1,1.6 -2.6,3 -3.8,3.7 -3.9,2.1 -4.8,3.9 -5.3,5.4 0.9,0 9.9,0 9.9,0 0,0 0.2,-0.5 0.1,-1.8 -0.2,-1.7 1.4,-2 1.9,-2.1 0.5,-0.1 1.4,0.3 2.2,-1.6 1.5,-3.5 7.3,-13.3 7.7,-14.2 0.5,-0.9 2.3,-3.3 0.5,-4.3 -3.3,-2 -5.3,-5.2 -6,-8.8 -0.3,-1.4 -0.1,-3.8 3.2,-7.9 7,-8.7 1.8,-26.5 -13.7,-26.2 -8.8,0.2 -13.7,-0.6 -19.4,-1.7 -2.1,-0.4 -2.5,-1.5 -2,-2.8 0.5,-1.3 0.9,-3.9 0.9,-5 -1.5,-1.4 -3.8,-2.2 -4.9,-2.6 -1.2,-0.4 -1.8,-1.4 -0.6,-1.5 1.2,-0.1 5.8,0.4 5.8,0.4 0,0 0.2,-2.5 -0.5,-6.1 -2,-0.9 -4.5,-1.6 -7.1,-1.9 -0.7,-0.1 -1.3,-0.9 0.5,-1.1 2.3,-0.3 4.4,0 6,-0.1 0.1,-0.2 -0.8,-4.8 -2.4,-6.6 -1.1,-0.3 -1.7,-0.5 -5.7,-1 -1.4,-0.2 -1.4,-0.6 -0.5,-0.9 1.1,-0.3 2.8,-0.7 5.1,-0.5 -0.9,-1.2 -6.6,-11.6 -18.4,-8.5 1.3,1.6 2,2.4 2.4,3.5 0.4,1 -0.7,1.3 -1.7,0.3 -3.7,-3.9 -5.7,-3.8 -8.1,-4.3 1.6,1.5 2.3,3.1 2.8,4.6 -2.7,1.9 -6.5,6.5 -7.1,7.4 -1,1.7 0.4,2.6 0.4,2.6 z m 5.5,25.9 c -5.5,-2.2 -6.8,-3.7 -7.8,-4.2 -0.9,-0.4 -4.7,1.2 -5.4,2.9 -1.7,4.4 -5.5,11.6 -6.1,12.6 -0.3,0.5 -0.6,1.2 -0.6,1.9 0.1,0.7 0.3,3.5 0.2,4.2 -0.1,0.7 0,1.5 0.3,2.2 0.3,0.7 0.6,3.5 2.1,6.3 3.2,-3.2 3.7,-8 3.5,-7 0,0 1,-1.7 -1.5,-2.5 -0.7,-0.2 -0.6,-2.1 0.2,-2.4 1,-0.3 1.4,-0.6 1.9,-2.3 0.5,-1.7 2.2,-7.8 2.8,-9 0.1,-0.2 0.2,-0.5 0.6,-0.6 0.5,-0.2 1.1,-0.4 1.6,-0.5 0.2,0 0.7,0.2 0.8,0.4 0.9,0.9 5.4,4.6 5.4,4.6 0,0 2,-0.2 3.3,-0.7 -0.8,-1.4 -1.1,-4.4 -1.3,-5.9 z m 50.5,36 c -2.2,1.8 -8.9,5.2 -10.5,5.9 -1.7,0.8 -2.2,1.3 -3.4,3.7 -1.5,3 -3,8.4 -2.6,8.8 4.1,-0.7 7.1,-4.1 7.1,-4.1 0,0 0.1,-0.9 -0.9,-2.3 -0.8,-1.2 0.7,-2.5 1.6,-1.7 0.7,0.6 1.7,0.7 2.3,0.2 0.6,-0.5 13.5,-8.7 14.1,-9.7 -2.6,-2.6 -4.6,-5.2 -4.6,-5.2 0,0 -1,2.6 -3.1,4.4 z m -46.9,-68.7 c 0,0 -0.6,-0.3 0.6,-1.4 0.2,-0.1 0.4,0.2 1.1,0.2 1,0 1.5,-0.3 2.3,-1.3 1.2,-1.5 -1.3,-2 -2.1,-1.3 -0.9,0.8 -1.5,1.6 -2.3,2.3 -0.1,0 -1.4,1.1 0.4,1.5 z"
   inkscape:connector-curvature="0"
   style="fill:#a56467;fill-opacity:1" />
	<path
   id="path942"
   d="m 135.7,150.1 c 0,0 0,137.9 0,136.1 -58.3,-21.7 -60.5,18.3 -135.7,0 0,0 0,-138.3 0,-136.1 61.3,20.1 82.1,-22.4 135.7,0 z m -92.5,89.4 c -0.5,5.8 -3.8,6.6 -3.8,6.6 -5.8,-2.7 -8.9,4.6 -4,6.8 6.2,2.7 9.9,-5.2 10.3,-6.7 1,-4.2 1.1,-7.1 0.7,-13.9 -0.4,-5.8 1,-6.6 2,-6.8 0.9,-0.2 2.9,-0.2 4.9,5.8 2,6 6.2,6.9 6.2,6.9 0,0 -6.2,-10 2.4,-19.3 4,-4.3 12.1,-6.8 10.6,-12.8 0,0 -1.3,2.2 -3.7,2.8 -2.5,0.6 -7.2,1.3 -7.2,1.3 0,0 11.4,-5.4 13.4,-11.5 0,0 3.6,5.9 -1.2,14.6 0,0 4.5,-1.6 9.4,0.6 12.4,5.5 11.1,23.1 -4.6,27.4 -22.3,6 -14.2,23.3 -1.4,24.3 -1.4,-0.9 -1.7,-6.1 0.6,-9.2 1.1,-1 3.1,-3 4.4,1.2 2.2,7.5 8.8,8.1 11.8,7.2 -0.8,-0.7 -2.3,-2.9 -2.1,-4.3 0.4,-2.6 3.6,0.1 4.8,0.4 8.8,2.5 13.5,0.3 14,-1 -2,-0.4 -1.6,-0.2 -2.9,-0.5 -1.2,-0.3 -3.4,-1.9 0.8,-2.9 7.8,-1.8 12,-9.8 6.9,-16 -4.9,-5.9 -11,-5 -13,-4.2 8.4,1.8 8.8,8.6 4.6,12 -3.7,2.8 -13,3.9 -16.2,-2.3 -2,1.5 -2.7,3.8 -2.4,6.7 -0.8,-0.3 -4.4,-5.3 0.9,-9.5 24.3,-15.7 20.4,-42 -0.2,-52.8 l -0.3,-0.1 c -18.6,-10.7 -35,-0.9 -35,-0.9 11.5,-11.5 31.4,-4.7 34.3,-3.2 0,0 -2.3,-2 -3.5,-3.8 -1.6,-2.4 -1.5,-4.6 -1.5,-4.6 -7.9,4.4 -9.9,-2.4 -9.9,-2.4 0,0 -6.8,6.2 -11.3,1.2 -3.9,-4.4 2.4,-10.4 2.4,-10.4 -40.1,13.2 -32.5,35.8 -32.5,35.8 0,0 -5.8,5.3 -7.1,18.2 -1.5,14.6 5.8,25 14.9,22.1 2.1,-0.7 3.1,-1.6 3.5,-2.7 z m -1.9,-8.6 c 2,-0.1 2.2,-2.5 1.9,-3.8 -0.4,-1.5 -2.9,-1.7 -3.5,0.2 -0.6,1.9 -0.1,3.7 -0.1,3.7 0.5,1.8 2.5,2.3 2.7,2.2 -1.1,-1.1 -0.8,-1.7 -1,-2.3 z m 8.1,-3.1 c 0,0 -2.4,1.6 0.6,8.1 3,6.5 6.7,12.6 0.2,19.8 3.7,0 11.6,-4.8 3.1,-19.1 -1.9,-3.4 -4.1,-5.6 -3.9,-8.8 z"
   inkscape:connector-curvature="0"
   style="fill:#a56467;fill-opacity:1" />
</g></g></g></svg>